<?xml version="1.0" encoding="UTF-8" ?>
<!DOCTYPE svg PUBLIC "-//W3C//DTD SVG 1.1//EN" "http://www.w3.org/Graphics/SVG/1.1/DTD/svg11.dtd">
<svg width="1190pt" height="1258pt" viewBox="0 0 1190 1258" version="1.1" xmlns="http://www.w3.org/2000/svg">
<g id="#ffffffff">
<path fill="#ffffff" opacity="1.00" d=" M 502.68 373.36 C 527.30 368.55 553.50 373.33 575.18 385.83 C 576.13 386.43 577.12 387.03 577.89 387.90 C 582.37 397.46 586.95 407.12 589.36 417.46 C 591.79 428.54 592.17 439.97 591.46 451.26 C 589.80 483.47 570.85 513.51 544.08 530.99 C 530.54 539.64 515.02 545.56 498.95 546.96 C 487.64 548.17 476.15 547.69 464.94 545.81 C 452.96 543.19 441.23 538.86 430.95 532.11 C 412.31 502.01 410.97 462.33 426.69 430.70 C 431.53 420.74 438.18 411.77 445.64 403.63 C 461.02 388.11 481.08 377.09 502.68 373.36 Z" />
</g>
<g id="#e54d39ff">
<path fill="#e54d39" opacity="1.00" d=" M 686.84 56.23 C 706.75 53.30 726.94 54.10 746.99 54.36 C 810.81 58.03 872.29 81.20 926.34 114.66 C 975.39 145.04 1019.59 184.46 1051.10 233.09 C 1084.19 282.97 1102.52 342.28 1104.64 402.01 C 1104.84 415.00 1104.81 428.00 1104.54 440.99 C 1101.93 487.16 1091.69 532.68 1076.57 576.31 C 1061.99 618.57 1042.99 659.23 1021.21 698.25 C 1003.73 729.01 985.85 759.85 962.96 786.99 C 938.40 816.76 908.44 842.35 874.11 860.18 C 856.47 869.39 837.83 876.74 818.58 881.78 C 805.20 872.52 791.08 864.41 777.40 855.62 C 727.23 824.24 676.95 793.03 626.87 761.51 C 616.64 755.27 606.57 748.79 596.21 742.77 C 589.02 737.96 581.80 733.21 574.33 728.85 C 560.05 719.83 545.73 710.86 531.41 701.90 C 527.99 699.82 524.54 697.78 521.16 695.63 C 518.11 693.71 515.13 691.70 512.04 689.85 C 447.45 649.46 382.86 609.08 318.22 568.76 C 308.04 562.41 298.01 555.82 287.60 549.85 C 286.54 549.19 286.78 547.70 286.43 546.66 C 284.27 532.53 282.18 518.32 282.35 503.99 C 282.46 493.66 281.91 483.26 283.36 472.99 C 287.71 422.27 307.70 374.15 334.26 331.17 C 357.90 293.28 383.81 256.74 412.77 222.72 C 428.99 204.02 445.66 185.65 464.01 169.02 C 493.62 141.23 526.43 116.72 562.04 97.16 C 600.73 76.23 643.05 61.41 686.84 56.23 M 502.68 373.36 C 481.08 377.09 461.02 388.11 445.64 403.63 C 438.18 411.77 431.53 420.74 426.69 430.70 C 410.97 462.33 412.31 502.01 430.95 532.11 C 439.77 548.01 453.72 560.48 469.04 569.97 C 468.58 569.85 467.64 569.61 467.17 569.49 C 475.26 583.04 487.09 594.12 500.21 602.75 C 517.64 613.75 538.39 619.57 559.00 619.12 C 579.30 619.03 599.50 612.59 616.34 601.30 C 642.35 584.16 659.78 554.98 662.94 524.04 C 663.47 512.14 663.82 499.98 660.61 488.39 C 654.73 462.54 638.39 439.44 616.40 424.76 C 615.37 424.23 614.34 423.75 613.30 423.29 L 613.73 424.13 C 608.52 415.68 602.42 407.69 595.15 400.89 C 589.90 395.96 584.43 391.05 577.89 387.90 C 577.12 387.03 576.13 386.43 575.18 385.83 C 553.50 373.33 527.30 368.55 502.68 373.36 Z" />
</g>
<g id="#bfc2c8ff">
<path fill="#bfc2c8" opacity="1.00" d=" M 577.89 387.90 C 584.43 391.05 589.90 395.96 595.15 400.89 C 602.42 407.69 608.52 415.68 613.73 424.13 C 621.10 437.68 626.32 452.55 627.53 467.98 C 627.84 478.51 628.20 489.21 625.70 499.53 C 621.76 518.17 613.00 535.94 599.61 549.62 C 594.63 554.61 589.75 559.79 583.96 563.87 C 568.34 574.74 549.97 581.76 530.97 583.37 C 519.82 583.92 508.50 583.79 497.61 581.04 C 487.65 578.64 478.15 574.63 469.04 569.97 C 453.72 560.48 439.77 548.01 430.95 532.11 C 441.23 538.86 452.96 543.19 464.94 545.81 C 476.15 547.69 487.64 548.17 498.95 546.96 C 515.02 545.56 530.54 539.64 544.08 530.99 C 570.85 513.51 589.80 483.47 591.46 451.26 C 592.17 439.97 591.79 428.54 589.36 417.46 C 586.95 407.12 582.37 397.46 577.89 387.90 Z" />
</g>
<g id="#c54030ff">
<path fill="#c54030" opacity="1.00" d=" M 613.30 423.29 C 614.34 423.75 615.37 424.23 616.40 424.76 C 638.39 439.44 654.73 462.54 660.61 488.39 C 663.82 499.98 663.47 512.14 662.94 524.04 C 659.78 554.98 642.35 584.16 616.34 601.30 C 599.50 612.59 579.30 619.03 559.00 619.12 C 538.39 619.57 517.64 613.75 500.21 602.75 C 487.09 594.12 475.26 583.04 467.17 569.49 C 467.64 569.61 468.58 569.85 469.04 569.97 C 478.15 574.63 487.65 578.64 497.61 581.04 C 508.50 583.79 519.82 583.92 530.97 583.37 C 549.97 581.76 568.34 574.74 583.96 563.87 C 589.75 559.79 594.63 554.61 599.61 549.62 C 613.00 535.94 621.76 518.17 625.70 499.53 C 628.20 489.21 627.84 478.51 627.53 467.98 C 626.32 452.55 621.10 437.68 613.73 424.13 L 613.30 423.29 Z" />
</g>
<g id="#f2a63bff">
<path fill="#f2a63b" opacity="1.00" d=" M 287.60 549.85 C 298.01 555.82 308.04 562.41 318.22 568.76 C 382.86 609.08 447.45 649.46 512.04 689.85 C 507.38 688.91 502.29 688.67 497.94 690.88 C 493.77 692.86 490.85 696.61 488.38 700.38 C 476.90 718.14 464.59 735.35 453.10 753.11 C 444.11 765.56 436.04 778.64 427.20 791.20 C 411.62 814.58 395.80 837.81 380.11 861.12 C 377.91 864.79 375.60 868.47 372.37 871.35 C 377.98 857.50 384.79 843.88 386.95 828.92 C 393.90 793.81 386.29 756.21 366.67 726.33 C 334.48 677.17 305.59 624.80 290.83 567.54 C 289.53 561.70 287.88 555.86 287.60 549.85 Z" />
<path fill="#f2a63b" opacity="1.00" d=" M 574.33 728.85 C 581.80 733.21 589.02 737.96 596.21 742.77 C 597.50 746.43 599.01 750.10 599.22 754.03 C 599.42 757.67 598.00 761.16 596.29 764.30 C 564.53 819.50 532.48 874.51 500.75 929.72 C 497.88 934.39 494.98 939.12 493.50 944.45 C 492.29 947.68 490.14 950.43 488.30 953.32 C 479.52 966.46 471.88 980.32 463.92 993.97 C 451.89 1014.33 440.44 1035.04 428.46 1055.43 C 405.37 1095.37 382.21 1135.26 359.23 1175.24 C 356.26 1180.26 350.98 1184.09 345.04 1184.39 C 338.78 1185.01 333.27 1181.52 327.69 1179.29 C 318.24 1175.37 309.17 1170.62 299.94 1166.22 C 297.29 1164.91 294.74 1163.39 292.41 1161.57 C 295.52 1161.92 298.64 1162.33 301.62 1163.34 C 305.74 1164.52 310.32 1166.69 314.52 1164.62 C 320.85 1161.42 324.52 1154.98 328.11 1149.16 C 337.65 1132.76 347.64 1116.64 357.36 1100.36 C 381.08 1060.46 405.33 1020.89 428.96 980.95 C 442.12 959.69 454.58 938.01 467.76 916.77 C 493.54 873.31 519.81 830.14 545.79 786.80 C 553.99 772.46 563.15 758.68 571.27 744.29 C 574.02 739.63 574.32 734.12 574.33 728.85 Z" />
<path fill="#f2a63b" opacity="1.00" d=" M 629.52 773.81 C 629.44 769.58 627.89 765.57 626.87 761.51 C 676.95 793.03 727.23 824.24 777.40 855.62 C 791.08 864.41 805.20 872.52 818.58 881.78 C 795.26 888.31 771.15 891.58 747.04 893.43 C 733.02 893.38 719.02 895.22 705.00 894.01 C 695.34 893.14 685.60 894.05 675.98 892.68 C 658.25 891.65 640.62 889.60 623.00 887.52 C 610.07 885.82 596.95 886.59 584.10 888.53 C 576.87 889.47 570.06 892.23 562.89 893.45 C 566.74 885.93 571.07 878.68 575.40 871.43 C 591.69 843.06 608.12 814.78 624.55 786.49 C 626.72 782.52 629.28 778.45 629.52 773.81 Z" />
</g>
<g id="#f7cc48ff">
<path fill="#f7cc48" opacity="1.00" d=" M 497.94 690.88 C 502.29 688.67 507.38 688.91 512.04 689.85 C 515.13 691.70 518.11 693.71 521.16 695.63 C 516.95 696.48 512.39 697.11 509.01 700.01 C 504.26 704.10 501.37 709.80 497.91 714.93 C 412.81 843.48 327.81 972.10 242.61 1100.59 C 238.44 1106.65 235.85 1115.23 240.08 1121.93 C 245.22 1129.02 253.73 1132.83 258.51 1140.27 C 249.70 1134.73 241.99 1127.63 234.01 1120.99 C 230.08 1117.22 224.86 1114.27 222.92 1108.90 C 220.64 1103.51 220.88 1097.04 224.10 1092.09 C 262.59 1034.92 301.20 977.83 339.68 920.65 C 347.79 908.43 356.40 896.54 363.96 883.96 C 366.82 879.80 368.74 874.94 372.37 871.35 C 375.60 868.47 377.91 864.79 380.11 861.12 C 395.80 837.81 411.62 814.58 427.20 791.20 C 436.04 778.64 444.11 765.56 453.10 753.11 C 464.59 735.35 476.90 718.14 488.38 700.38 C 490.85 696.61 493.77 692.86 497.94 690.88 Z" />
<path fill="#f7cc48" opacity="1.00" d=" M 531.41 701.90 C 545.73 710.86 560.05 719.83 574.33 728.85 C 574.32 734.12 574.02 739.63 571.27 744.29 C 563.15 758.68 553.99 772.46 545.79 786.80 C 519.81 830.14 493.54 873.31 467.76 916.77 C 454.58 938.01 442.12 959.69 428.96 980.95 C 405.33 1020.89 381.08 1060.46 357.36 1100.36 C 347.64 1116.64 337.65 1132.76 328.11 1149.16 C 324.52 1154.98 320.85 1161.42 314.52 1164.62 C 310.32 1166.69 305.74 1164.52 301.62 1163.34 C 298.64 1162.33 295.52 1161.92 292.41 1161.57 C 290.11 1161.26 288.14 1159.93 286.16 1158.82 C 280.62 1155.47 275.05 1152.10 270.01 1148.01 C 265.74 1144.27 261.88 1140.11 258.11 1135.89 C 255.77 1133.13 253.16 1129.98 253.43 1126.14 C 253.88 1119.47 257.78 1113.76 261.27 1108.29 C 346.77 976.77 432.16 845.16 517.55 713.57 C 520.79 708.26 525.98 704.68 531.41 701.90 Z" />
</g>
<g id="#fae8a4ff">
<path fill="#fae8a4" opacity="1.00" d=" M 509.01 700.01 C 512.39 697.11 516.95 696.48 521.16 695.63 C 524.54 697.78 527.99 699.82 531.41 701.90 C 525.98 704.68 520.79 708.26 517.55 713.57 C 432.16 845.16 346.77 976.77 261.27 1108.29 C 257.78 1113.76 253.88 1119.47 253.43 1126.14 C 253.16 1129.98 255.77 1133.13 258.11 1135.89 C 261.88 1140.11 265.74 1144.27 270.01 1148.01 C 265.76 1146.17 261.28 1144.15 258.51 1140.27 C 253.73 1132.83 245.22 1129.02 240.08 1121.93 C 235.85 1115.23 238.44 1106.65 242.61 1100.59 C 327.81 972.10 412.81 843.48 497.91 714.93 C 501.37 709.80 504.26 704.10 509.01 700.01 Z" />
</g>
<g id="#ed762fff">
<path fill="#ed762f" opacity="1.00" d=" M 596.21 742.77 C 606.57 748.79 616.64 755.27 626.87 761.51 C 627.89 765.57 629.44 769.58 629.52 773.81 C 629.28 778.45 626.72 782.52 624.55 786.49 C 608.12 814.78 591.69 843.06 575.40 871.43 C 571.07 878.68 566.74 885.93 562.89 893.45 C 559.96 895.38 556.46 896.14 553.29 897.58 C 537.54 904.29 523.04 913.86 510.57 925.58 C 504.25 931.29 499.37 938.33 493.50 944.45 C 494.98 939.12 497.88 934.39 500.75 929.72 C 532.48 874.51 564.53 819.50 596.29 764.30 C 598.00 761.16 599.42 757.67 599.22 754.03 C 599.01 750.10 597.50 746.43 596.21 742.77 Z" />
</g>
</svg>
